<?xml version="1.0" encoding="utf-8"?>
<!-- Svg Vector Icons : http://www.onlinewebfonts.com/icon -->
<!DOCTYPE svg PUBLIC "-//W3C//DTD SVG 1.1//EN" "http://www.w3.org/Graphics/SVG/1.1/DTD/svg11.dtd">
<svg version="1.1" xmlns="http://www.w3.org/2000/svg" xmlns:xlink="http://www.w3.org/1999/xlink" x="0px" y="0px" viewBox="0 0 1000 1000" enable-background="new 0 0 1000 1000" xml:space="preserve">
<metadata> Svg Vector Icons : http://www.onlinewebfonts.com/icon </metadata>
<g><g transform="translate(0.000000,511.000000) scale(0.100000,-0.100000)"><path d="M3852.6,4981c-46.9-24.8-99.3-74.5-118.6-113.1c-16.5-38.6-88.3-650.9-160-1362.4L3444.4,2212l-1238.3-8.3l-1238.4-8.3l-66.2-77.2c-96.5-113.1-91-273.1,13.8-380.6l80-80H2184h1188.7v-88.3c0-49.6-63.4-706-137.9-1456.2c-74.5-750.2-137.9-1387.3-137.9-1412.1c0-44.1-96.5-46.9-1285.3-55.2l-1285.2-8.3l-80-91c-107.5-121.4-107.5-248.2,0-369.6l80-91l1252.1-8.3l1252.1-8.3l-132.4-1301.8c-71.7-717.1-124.1-1326.6-113.1-1357c60.7-217.9,366.8-267.5,488.1-82.7c33.1,49.6,77.2,411,168.3,1343.2c69,703.3,132.4,1304.5,140.6,1340.4l11,60.7H4851h1254.9l-16.5-115.8c-35.8-278.6-234.4-2344.3-234.4-2460.2c0-143.4,74.5-248.2,204.1-281.3c93.8-22.1,228.9,33.1,284.1,118.6c33.1,49.6,80,408.2,176.5,1381.8c74.5,722.6,132.4,1323.9,135.1,1337.6c0,11,488.2,19.3,1083.9,19.3c593,0,1128,8.3,1183.2,16.6c151.7,24.8,242.7,129.6,242.7,273c0,143.4-91,248.2-242.7,273c-55.2,8.3-576.4,16.5-1158.4,16.5H6707.1l16.5,118.6c8.3,63.5,68.9,681.2,137.9,1370.8c69,689.5,132.4,1312.8,140.7,1387.3l16.5,129.6h1227.3h1227.3l80,80c88.3,88.3,104.8,195.8,46.9,319.9c-68.9,148.9-85.5,151.7-1362.4,151.7H7062.9l16.6,118.6c8.3,63.4,66.2,639.9,129.6,1279.7c129.6,1296.3,129.6,1290.7-49.6,1373.5c-157.2,74.5-344.8-11-377.9-176.5c-13.8-57.9-264.7-2518.1-264.7-2578.7c0-8.3-565.4-16.5-1254.9-16.5c-1139.1,0-1254.9,5.5-1254.9,44.1c0,24.8,55.2,601.2,124.1,1279.7c82.7,819.1,115.8,1257.6,99.3,1301.8C4172.5,4986.6,3998.8,5052.7,3852.6,4981z M6447.9,1541.8c-8.3-66.2-68.9-684-137.9-1373.5c-68.9-689.5-132.4-1312.8-140.7-1384.6l-16.5-132.4H4900.6c-689.5,0-1252.1,8.3-1252.1,22.1c-2.8,49.7,278.5,2865.6,292.3,2923.5l11,60.7h1257.6h1254.9L6447.9,1541.8z"/></g></g>
</svg>